<svg xmlns="http://www.w3.org/2000/svg" viewBox="0 0 383.24 383.25"><defs><style>.cls-1{fill:#fff;}</style></defs><g id="Layer_2" data-name="Layer 2"><g id="Layer_1-2" data-name="Layer 1"><path class="cls-1" d="M0,184.14q12.77-31.27,25.54-62.55c6.4-15.65,16.6-22.52,33.42-22.53q51.64,0,103.29,0a23.34,23.34,0,0,1,4.1.22c3.36.58,5.41,3.1,5.1,6.28s-2.32,5.24-5.63,5.38c-4.36.17-8.73.2-13.09,0-2.48-.09-3.53.58-3.66,3.26-1.14,23.55-2.47,47.08-3.61,70.62C145,194.09,151.61,202,160,202.82c8.81.85,16.58-5.14,17.51-14.66.65-6.63-.17-13.42-.46-20.14-.27-6.1-.75-12.19-1.05-18.3-.24-4.73,1.84-7.53,5.6-7.72s6.08,2.3,6.34,7.06c.69,12.33,1.35,24.66,2.09,37,.6,10,6.2,15.77,16.07,16.84,3.82.41,6.14,2.85,6,6.3s-2.68,5.73-6.53,5.67a26.52,26.52,0,0,1-18.75-8.05,31.82,31.82,0,0,1-2.57-3.22c-13.64,15.72-33.22,14.2-44.87.27-5.88,6.77-13,11.07-22.27,11s-16.28-4-22.23-11.1c-6,6.89-13.15,11.12-22.36,11.09a27.71,27.71,0,0,1-21.45-10.14c-5.17,3.08-9.8,6.92-15.13,8.8-14,4.92-29.39-3.41-34.43-17.83-.49-1.37-1-2.73-1.55-4.09ZM102.4,111c-7.26,0-14,.14-20.66-.06-2.72-.08-3.89.79-4.64,3.42-6.6,23.08-13.35,46.12-20,69.19a11.73,11.73,0,0,0-.47,4.73c1.22,8.56,7.8,14.51,15.85,14.56s14.57-5.76,16.06-14.35c1.8-10.42,3.59-20.85,5.46-31.26C96.72,142.09,99.51,126.93,102.4,111Zm12.4.17a13.37,13.37,0,0,0-.75,2.11q-6.48,35.46-12.85,70.95a14.24,14.24,0,0,0,.23,5.55c1.91,8.38,9,13.66,17.13,13,7.68-.6,14.17-7.21,14.66-15.47,1.48-24.89,2.79-49.79,4.14-74.69a6.22,6.22,0,0,0-.35-1.48Zm-49.07-.15c-3.61,0-6.46,0-9.31,0-9.26.19-15.53,4.84-19,13.21Q25.08,153.92,13,183.7a11.88,11.88,0,0,0-.47,6.83,15.81,15.81,0,0,0,16.88,12.3c7.54-.59,13.74-7,14.72-15.08a48.82,48.82,0,0,1,1.5-7.67c3.84-13.4,7.79-26.77,11.69-40.15C60.1,130.52,62.82,121.1,65.73,111.05Z"/><path class="cls-1" d="M297.17,0c6.08,1.25,12.28,2.09,18.23,3.81a94,94,0,0,1,67.7,95.48,92.14,92.14,0,0,1-12.69,42.2q-37.52,63.6-75.15,127.12c-3.82,6.46-8.56,6.45-12.37,0q-37.68-63.72-75.31-127.46c-32.86-56,1.52-129.22,65.47-139.73C275.61,1,278.15.47,280.7,0Zm-8,255.44c1.06-1.74,1.91-3.12,2.73-4.51L359.36,136.7a82.35,82.35,0,0,0,11.3-52.34C365.56,38.7,322,5.55,276.48,12.89a82.31,82.31,0,0,0-57.89,123.44q34.1,57.76,68.28,115.47C287.55,253,288.31,254.06,289.18,255.44Z"/><path class="cls-1" d="M40.27,371.07H283.13v-4.59q0-37.23,0-74.47a16.79,16.79,0,0,1,.42-4.43c.86-3.09,3.17-4.43,6.25-4.15a5.31,5.31,0,0,1,5.17,5,25,25,0,0,1,.11,3.36q0,41.35,0,82.7c0,7.18-1.59,8.76-8.78,8.76H37.07c-7.18,0-8.76-1.57-8.77-8.77q0-73,0-145.94a27,27,0,0,1,.09-3.37,5.38,5.38,0,0,1,5.11-5.07,5.36,5.36,0,0,1,6.17,3.75,16.34,16.34,0,0,1,.57,5.15q0,68.85,0,137.71Z"/><path class="cls-1" d="M75.38,321.16c0-13-.58-26,.13-38.89C76.7,260.32,95.09,243.76,117,244c21.73.22,40.09,17.41,40.62,39.35.62,25.93.22,51.87.18,77.81,0,4.06-2.59,6.57-6.17,6.49s-5.74-2.58-5.74-6.85c0-24.94,0-49.88,0-74.82,0-14.91-9.78-26.69-24.15-29.58-15.91-3.2-32.23,8.53-34.2,24.65a64.09,64.09,0,0,0-.43,7.46q0,35,0,69.95a26.81,26.81,0,0,1-.15,4.11,5.46,5.46,0,0,1-5.55,5A5.36,5.36,0,0,1,75.46,363a19.2,19.2,0,0,1-.31-4.09q0-18.88,0-37.78Z"/><path class="cls-1" d="M223.83,325.8c-10.59,0-21.19,0-31.79,0-5.68,0-7.67-2-7.69-7.63q0-25.25,0-50.49c0-5.41,2.07-7.56,7.46-7.57q32.16-.09,64.33,0c5.18,0,7.27,2.23,7.28,7.35q0,25.62,0,51.24c0,4.95-2.12,7.07-7.06,7.09C245.53,325.83,234.68,325.8,223.83,325.8Zm-27.3-12.2h54.62V272.41H196.53Z"/><path class="cls-1" d="M223.44,346c-13.59,0-27.18,0-40.78,0-3.15,0-5.69-.86-6.79-4.08a5.7,5.7,0,0,1,4.18-7.52,18.26,18.26,0,0,1,4.44-.38q39.47,0,78.93,0c.87,0,1.75,0,2.62,0,3.78.35,6.29,2.88,6.2,6.19s-2.55,5.69-6.53,5.71C251.62,346,237.53,346,223.44,346Z"/><path class="cls-1" d="M126.49,329.42a5.89,5.89,0,0,1-6-5.86,6,6,0,1,1,11.91,0A5.9,5.9,0,0,1,126.49,329.42Z"/><path class="cls-1" d="M346.25,94.64c-.55,32.21-26.38,57.11-58.69,56.6-31.34-.5-56.13-26.8-55.55-58.93.55-30.65,26.76-55.78,57.69-55.31C321.4,37.49,346.78,63.36,346.25,94.64ZM244,93.9a45.18,45.18,0,1,0,45.07-45A45.08,45.08,0,0,0,244,93.9Z"/><path class="cls-1" d="M289,121.43a27.09,27.09,0,0,1-27.21-27.38A27.34,27.34,0,1,1,289,121.43Zm-.09-12a15.32,15.32,0,0,0,15.59-15.25,15.54,15.54,0,0,0-15.44-15.5,15.35,15.35,0,0,0-15.31,15.17A15.13,15.13,0,0,0,288.93,109.46Z"/></g></g></svg>